# xmcd
#
# Track frame offsets: 
#        150
#        11790
#        23155
#        36309
#        50105
#        62686
#        75209
#        87614
#        100560
#        113441
#        125277
#        138707
#        152507
#        170996
#        182908
#        193767
#        209938
#        223693
#        237527
#        247070
#        256202
#        269517
#        279126
#        293514
#
# Disc length: 4076 seconds
#
# Revision: 2
# Processed by: cddbd v1.5.2PL0 Copyright (c) Steve Scherf et al.
# Submitted via: ExactAudioCopyFreeDBPlugin 1.0
#
DISCID=680fea18
DTITLE=George Jackson - The Fame Recordings
DYEAR=2012
DGENRE=Soul
TTITLE0=Mini Skirt Minnie
TTITLE1=Get it When I Want It
TTITLE2=I'm Just a Prisoner
TTITLE3=Victim of a Foolish Heart
TTITLE4=Two Wrongs Don't Make a Right
TTITLE5=I Bit Off More Than I Can Chew
TTITLE6=Let Me Confort You
TTITLE7=Forbidden Love
TTITLE8=Looking for Some Action
TTITLE9=Save Me
TTITLE10=Let the Best Man Win
TTITLE11=Hit and Run
TTITLE12=I Lived Through a Losing Battle
TTITLE13=Hold That Feeling
TTITLE14=My Nerves Fail
TTITLE15=Love Came Knocking at Your Door
TTITLE16=Pollution
TTITLE17=It's Not Safe to Mess on Me
TTITLE18=Soul Lovin'
TTITLE19=Your Love Lifted Me
TTITLE20=I'm Living Good
TTITLE21=The Darkest Hour is Before Dawn
TTITLE22=You Got a Lot to Like
TTITLE23=Ain't That Some Good Lovin'
EXTD=
EXTT0=
EXTT1=
EXTT2=
EXTT3=
EXTT4=
EXTT5=
EXTT6=
EXTT7=
EXTT8=
EXTT9=
EXTT10=
EXTT11=
EXTT12=
EXTT13=
EXTT14=
EXTT15=
EXTT16=
EXTT17=
EXTT18=
EXTT19=
EXTT20=
EXTT21=
EXTT22=
EXTT23=
PLAYORDER=
